/* XPM */
static char *char11649788915[] = {
/* columns rows colors chars-per-pixel */
"64 64 206 2 ",
"   c None",
".  c #000001",
"X  c #0C0B01",
"o  c #00000B",
"O  c #0C0C0C",
"+  c #000900",
"@  c #110F02",
"#  c #001300",
"$  c #161501",
"%  c #1C1B01",
"&  c #1A190B",
"*  c #181702",
"=  c #000013",
"-  c #00001C",
";  c #0B0C1C",
":  c #131313",
">  c #1C1C19",
",  c #2B0004",
"<  c #211F00",
"1  c #3D0A0D",
"2  c #252301",
"3  c #2C2B00",
"4  c #23210A",
"5  c #333200",
"6  c #3F3C00",
"7  c #393600",
"8  c #333218",
"9  c #000023",
"0  c #00012B",
"q  c #090E2E",
"w  c #16182A",
"e  c #191C39",
"r  c #2E2D26",
"t  c #2D2D2E",
"y  c #27272D",
"u  c #32312D",
"i  c #3B3B23",
"p  c #2D2E36",
"a  c #232539",
"s  c gray20",
"d  c #36363C",
"f  c #302F26",
"g  c #510005",
"h  c #5F1504",
"j  c #541603",
"k  c #670007",
"l  c #691906",
"z  c #403D00",
"x  c #4B2204",
"c  c #6A2307",
"v  c #712408",
"b  c #792808",
"n  c #6C2C25",
"m  c #454202",
"M  c #494601",
"N  c #494706",
"B  c #524F03",
"V  c #545102",
"C  c #595603",
"Z  c #5C5A01",
"A  c #5E5B0E",
"S  c #5A570C",
"D  c #494718",
"F  c #504E10",
"G  c #585616",
"H  c #625E02",
"J  c #615E0D",
"K  c #615E18",
"L  c #656202",
"P  c #6E6B05",
"I  c #696506",
"U  c #716E02",
"Y  c #706C09",
"T  c #767202",
"R  c #7A7504",
"E  c #7E7904",
"W  c #7B760B",
"Q  c #7D780A",
"!  c #75710A",
"~  c #6A671A",
"^  c #787518",
"/  c #706D14",
"(  c #47452B",
")  c #58552A",
"_  c #5C5A33",
"`  c #787529",
"'  c #696720",
"]  c #373845",
"[  c #252740",
"{  c #6B3E65",
"}  c #6E3D6B",
"|  c #703E6C",
" . c #454541",
".. c #4B4B4C",
"X. c #474749",
"o. c #595948",
"O. c #545453",
"+. c #5A5A55",
"@. c #5C5C5B",
"#. c #66524D",
"$. c #66654C",
"%. c #6A6949",
"&. c #676658",
"*. c #72705D",
"=. c #754767",
"-. c #7B4477",
";. c #6E6E6C",
":. c #676763",
">. c #74736D",
",. c #7D7C6B",
"<. c #757473",
"1. c #7E7E72",
"2. c #84290A",
"3. c #9E320D",
"4. c #862A19",
"5. c #92270C",
"6. c #DF3B16",
"7. c #FE3D00",
"8. c #FF3907",
"9. c #E23B16",
"0. c #EC3C17",
"q. c #F53E18",
"w. c #FB3F19",
"e. c #FF3F20",
"r. c #817C0B",
"t. c #827D00",
"y. c #FF4300",
"u. c #FF4019",
"i. c #FF4124",
"p. c #FF4827",
"a. c #FF493B",
"s. c #80447A",
"d. c #FF4D48",
"f. c #FF4D55",
"g. c #FF5065",
"h. c #8A8603",
"j. c #8F8A06",
"k. c #8B8608",
"l. c #928D04",
"z. c #928E0C",
"x. c #908B0B",
"c. c #A99B0C",
"v. c #B7AA0D",
"b. c #BCB50D",
"n. c #BFB80D",
"m. c #B7B10D",
"M. c #B4AD1B",
"N. c #BAB215",
"B. c #BFB91A",
"V. c #BAB318",
"C. c #ADA70B",
"Z. c #848128",
"A. c #B7AE20",
"S. c #C2BB0D",
"D. c #C2BB19",
"F. c #C1BB12",
"G. c #C3BC20",
"H. c #CBC40E",
"J. c #CBC50E",
"K. c #D2CB0E",
"L. c #DAD30F",
"P. c #D6D009",
"I. c #CBC51B",
"U. c #D6CF13",
"Y. c #D6CF18",
"T. c #D6D013",
"R. c #DCD513",
"E. c #DFD810",
"W. c #DCD51B",
"Q. c #E2DB0E",
"!. c #E2DB12",
"~. c #E0D91A",
"^. c #EBE30C",
"/. c #E7E011",
"(. c #ECE512",
"). c #EFE811",
"_. c #EAE21A",
"`. c #F4EC12",
"'. c #F7F012",
"]. c #FBF312",
"[. c #FFFA13",
"{. c #C6C020",
"}. c #EC6EBB",
"|. c #D976D6",
" X c #FF75C2",
".X c #FF7ACE",
"XX c #FF7CD4",
"oX c #FF7DDA",
"OX c #E87EE5",
"+X c #908F87",
"@X c #F884ED",
"#X c #FF87F1",
"$X c #FF88F3",
"%X c #FF8AFB",
"&X c #FF93FF",
"*X c #EA82ED",
"=X c #C7C7C4",
"-X c #D0D0CF",
";X c #D4D4D4",
":X c #DCDCDC",
">X c #D8D8D6",
",X c #E5E5E5",
"<X c #ECECEC",
"1X c #E8E8E7",
"2X c #F3F3F3",
"3X c #FBFBFB",
/* pixels */
"                                                                                                                                ",
"                                                      - = = = = = = - . ]                                                       ",
"                                                      T T T T T T T T T `                                                       ",
"                                          e . = = = F ).`.`.`.`.'.`.`.'.K.o = = = o -                                           ",
"                                        o.~ L L L Z t.].].].].].].].].].!.I H L H L H                                           ",
"                                  . o o M (.`.`.`.`.`.].'.].'.'.].].].'.'.`.`.`.`.`.!.o o . w                                   ",
"                                  C H V r.'.].].].].].'.].].].].].].'.].].].].].].[.(.H C Z G                                   ",
"                          o . . L (.'.`.`.].'.].].].].].].].'.].].].].].].].].].].].].'.`.].E.. . . w                           ",
"                        1.V C m k.`.].].].].].].].].].'.].].].].].].].].].].'.].'.].'.].].]./.H V V G +X                        ",
"                      0 ~ `.].].].].].].].].].].'.].].].].'.].'.].'.].'.].'.].].].].].].].].].].'.[.!.i 0                       ",
"                    ,.M h.'.].'.].].'.].].].'.].].].].].'.].].].].].].].].].].].].].'.].].].].].].]./.U B                       ",
"                  0 H `.'.'.].[.].[.].[.].[.].].].].].'.].].].'.'.].].'.].].].[.].[.].].].[.].].[.].].`.`.F -                   ",
"                *.G h.].].].`.T.L.T.L.L.T.W.~.`.'.].].].].'.].].].].'.].'.].`.L.L.L.L.L.L.L.L.W.W.`.].].].E B                   ",
"            &.0 L ).`.].].[.L.. . . . . . . 2 ].].].].].].].].].].].].].].[./.. . . . . . . . . . Q.[.'.'.`.Q.F 9               ",
"            @.- L ].].].(.Q.S.. 2 * $ $ 8 @.%.W.~.'.'.].].'.].].].].'.].).Q.S.3 X % * * * * * +.@.{.~.`.].].`.M .               ",
"            @.9 Z '.].[.K.. . X . . O . X.,X=X. 5 ].].].].].].].'.].].[.L.. . X . . . . O . . >X:X. . !.[.].`.6 =               ",
"            $.D t.].(.T.C.. < . . . O . ..3X>XX.%.H.L.].].].].].].].`.E.m.2 $ X . . . . O . . 1X<X:.( B.L.`.`.P N               ",
"          o ! /.(.[.S.. . X . . . . O . O.2X3X<X=X. N `.].].`.].].[.K.. . X . . . . . . O . O :X3X2X;X] . _.].).!.7 ;           ",
"          . ! ].].[.S.. < . . . . . O . O.2X3X3X;X. A `.].].'.].`.[.K.X $ X . . . . . . O . : :X3X3X,XX.. _.[.].`.7 ;           ",
"          . P `.].[.S.. $ . . . . . O . ..2X3X3X-X. S `.].].].].].[.U.. . X . . . . . . O . . :X3X3X,X] . _.].].(.5 -           ",
"        &.. r.].'.].S.. & + O + O . > . :.2X3X3X-X. S `.'.].].'.`.[.K.. X O X O + O . + : : s :X3X3X,XX.. ~.].].`.M > 1.        ",
"      [ ` ^.`.'.].[.H.. . . . . . . @.,X<X3X3X3X;X. C '.].].].].].[.E.. . . . . . . . . p >X2X2X3X3X,X( . _.[.].`.`.Q.( ..      ",
"      . E ].].].`.E.M.q u t t t s . <.2X3X3X3X3X;X9 ) R.!.].].].`.!.F.u t t s t t s s > O.,X3X2X3X3X,XO.- I.!.].].[.`.2 w       ",
"      o R `.].[.D.. *.<X<X<X<X<X<X<X<X3X3X3X3X3X2X2X>X. J `.'.[.T.. i :X<X<X<X<X<X<X<X<X<X3X3X3X3X3X3X<X<X+.. ~.].].).3 t       ",
"      . r.`.].].D.. ;.3X3X3X3X3X3X3X3X3X3X3X3X3X3X3X,X. A ).].[.T.. r <X3X3X3X3X3X3X3X3X3X3X3X3X3X3X3X3X3X@.. W.].].(.5 t       ",
"      . R `.].].D.. ;.3X3X3X3X3X3X3X3X3X3X3X3X2X3X3X,X. A ).].[.T.. r <X3X3X3X3X3X3X3X2X3X3X3X3X3X3X3X3X2X@.. ~.[.].(.% w       ",
"      4 k.`.'.[.D.. ;.3X3X3X3X3X3X3X2X3X3X3X3X3X3X3X,X. J `.].[.Y.. r 1X3X3X2X3X3X3X3X3X3X3X3X3X2X3X3X3X2X@.. ~.].].`.V (       ",
"  - r.!.(.].'.[.B.. ;.3X3X3X3X3X3X3X3X3X3X3X3X3X3X3X,X. A ).'.[.Y.. f <X3X3X3X3X3X3X3X3X3X3X3X3X3X3X3X3X3X@.. ~.].].].^.T.M d   ",
"  . h.].[.'.'.[.B.. :.,X,X,X,X,X<X,X,X,X,X,X1X,X1X<X;X. A `.].[.T.. f >X<X,X1X,X,X,X,X1X1X,X,X1X<X,X,X,X,XO.. ~.].].].[.(.z p   ",
"  o h.`.'.].].].b.. $ . . . . . . . . . . . . . . . . . Z (.].[.K.. * . . . . . . . . . . . . . . . . . . . . E.].'.].]._.z p   ",
"  o h.].].].].[.S.. % & & & & & & & & & & & & & & & 4 . L `.`.].T.. % & & & & & & & & & & & & & & & & & & @ % Q.].].].].(.z p   ",
"  o h.].].'.].].`.L.E.R.R.R.R.R.E.R.R.R.W.R.R.R.E.R.R.E.!.].].].`.!.E.R.R.R.R.R.W.R.R.R.R.E.W.R.R.R.R.R.R.E.E.'.].].].[._.z p   ",
"  o h.'.].].].].].[.[.].].].[.].[.].[.[.[.[.[.].].[.[.[.].].].].].[.].[.[.[.].[.].[.].].[.].].].[.].[.[.].[.].].].].].].(.z p   ",
"  o h.].].'.].].'.].].].].].].].'.'.'.'.`.'.].].'.].'.].].].].].].].'.].'.'.'.'.].'.].].].].].].].].].'.'.].].].].].].].(.z p   ",
"  o h.`.'.].].].].'.].].].].].].].'.].].'.].].].'.].].].].`.].].'.].].].].].].'.].].].].].].].].].'.'.'.].].`.].].].].].(.z p   ",
"  . h.].].'.].].].].].].].].].].].].].].].].].].].].].].].].].].].].].].].].].].].].].].].].].].].].[.].].].].].].].`.[.(.6 p   ",
"  9 k._.`.].].].'.).).).).).).).).).).).`.(.).).).).).).).).).).).).(.`.).).).).).).).).).).).).).).`.(.).).`.].].].].`.!.M d   ",
"    $.6 z.].].].S.m V V B B B B B B B B B B B B B B B B B B B B B B B B B B B B B B B B B B B V B B B B B B V Q.[.].).L ) >.    ",
"      . R `.].].n.. . . . . . . . . . . . . . . . . . . . . . . . . . . . . . . . . . . . . . . . . . . . . . L.].].(.X q       ",
"      o E `.].[.n.. c 9.9.9.9.9.9.9.9.9.9.9.9.9.9.9.9.9.9.9.9.9.9.9.9.9.9.9.9.9.9.9.9.9.9.9.9.9.9.9.9.9.9.j + !.].].(.5 t       ",
"      o E `.].].S.. v u.u.u.u.u.u.u.u.u.u.u.u.u.u.u.u.u.u.u.u.u.u.u.u.u.u.u.u.u.u.u.u.u.u.u.u.u.u.u.u.u.w.h . E.].].(.3 y       ",
"      . E ].].[.b.. v u.u.u.u.u.u.u.u.u.u.u.u.u.u.u.u.u.u.u.u.u.u.u.u.u.u.u.u.u.u.u.u.u.u.u.u.u.u.u.u.u.u.h . Q.].[.`.3 y       ",
"      o W /.`.[.S.. l q.q.w.u.u.u.u.u.u.u.u.u.u.u.u.u.u.u.u.u.u.u.u.u.u.e.u.i.w.i.u.u.u.u.u.u.u.u.u.u.q.q.g . !.[.`.!.5 p       ",
"        D 3 k.]./.U.c.. 2.w.u.w.u.u.u.w.u.u.u.u.u.u.w.u.u.u.u.u.u.u.u.i.i.i.e.e.i.i.i.u.u.u.w.u.u.u.0.l , S.K.].`.H i           ",
"          . Y `.].[.H.. c w.u.w.w.u.u.u.u.u.u.u.u.u.w.u.u.u.w.u.u.w.u.y.7.7.7.y.7.y.7.u.w.u.u.u.u.u.9.1 . ).[.].).3 -           ",
"          . U ].].].H.. b u.u.u.u.u.u.u.u.u.u.u.u.u.u.u.u.u.u.u.u.w.a. XXX.X.X.X.XXX Xp.i.u.u.w.u.u.u.x . !.].].`.7 o           ",
"          0 ^ ^.`.[.S.. k u.q.w.u.u.w.u.u.u.u.u.u.u.u.u.u.w.u.u.i.7.p.$X%X%X&X%X%X%X#Xy.7.e.w.u.w.q.6.@ . ^.].`.!.( p           ",
"            %.K h.].^.J.C.g 3.u.u.u.u.u.u.u.w.u.u.w.u.u.u.u.i.w.d. XoX$X%X%X%X%X%X%X$XoX Xp.i.u.0.b l b.K.`.`.E H o.            ",
"            @.9 C `.].[.K.. k u.w.u.u.u.u.u.u.u.u.u.w.u.w.u.u.8.d.$X%X%X%X%X%X%X%X%X%X%X#Xy.7.i.9.. . !.[.].`.5 o               ",
"            &.9 L ].].].^.K.m.k 3.q.u.w.u.u.u.w.u.u.u.u.e.8.f. XXX$X%X%X$X%X%X%X%X%X%X%X#XXX}.4.l F.K.`.'.].`.M o               ",
"            @.9 L ].].].].[.L.. k u.u.w.u.u.u.u.u.u.u.u.e.8.d.#X%X%X%X%X%X%X%X%X%X%X%X%X%X&XOX= . !.[.].].[.].M o               ",
"                *.^ l.[.].].(.L.b.k 2.b 5.q.u.u.u.u.u.7.f..XoX$X%X%X%X$X%X%X%X%X%X%X@X-.s.-.=.N.L.`.].].`.l.Y                   ",
"                  - S '.].].].[.K.. . . , u.w.w.u.u.e.8.g.%X%X%X%X%X%X%X%X%X%X%X%X%X*X. . . . !.[.].].].].N o                   ",
"                    %.I l.].].].(.S.S.H.c.k v v v c 4.7.g.#X%X%X%X%X%X%XOX=.} } } } =.M.I.G.I.).].]./.Q L                       ",
"                      = L '.].'.].[.[.[.H.. . . . . 1 8.g.@X%X%X%X%X$X%X|.. . . . . # /.[.[.].].`.].Q.3 .                       ",
"                        ) L L C l.`.].]./.n.S.F.b.S.v.l n { { { { { { } =.M.D.B.B.B.I.`.].]./.U L L ' $.                        ",
"                          - = = ~ ^.].`.].[.[.[.[.[.!.. . . . . . . . . . ^.[.[.[.[.].].`.].Q.= = o a                           ",
"                          O.    _ U T I l.`.].].].].`.m.m.N.V.M.M.N.N.N.B.`.].].].].(.R U U / o.                                ",
"                                  9 9 0 D ^.].`.`.`.'.[.[.[.[.[.[.[.[.[.[.'.`.`.`.].!.9 9 - a                                   ",
"                                  +.+.+.%.^ Q Q Q ! z.`.].'.].'.].`.'.].!.r.Q Q Q Q ^ o.+.O.:.                                  ",
"                                          9 . . . . M `.].].].'.].].].].P.. . . . . .                                           ",
"                                          <.>.>.>.<.*.h.j.j.j.j.j.j.j.l.Z.>.<.>.>.<.<.                                          ",
"                                                      o . . . . . . o . e                                                       ",
"                                                                                                                                "
};
